# xmcd CD database file generated by Grip 3.3.1
# 
# Track frame offsets:
#       182
#       7230
#       26557
#       50445
#       68085
#       93807
#       119210
#       134160
#       156575
#       171252
#       184440
#       206527
#       226297
#       250847
# 
# Disc length: 3603 seconds
# 
# Revision: 2
# Processed by: cddbd v1.5.2PL0 Copyright (c) Steve Scherf et al.
# Submitted via: Grip 3.3.1
# 
DISCID=d10e110e
DTITLE=Raphael Rabello and Armandinho - Raphael Rabello and Armandinho Em Co
DTITLE=ncerto
DYEAR=1997
DGENRE=Blues
TTITLE0=Texto
TTITLE1=Taine
TTITLE2=Assanhado
TTITLE3=Santa Morena
TTITLE4=Evocação à Jacob
TTITLE5=Recuerdo de Allambra
TTITLE6=Samba do Avião
TTITLE7=Lembrando Jacob
TTITLE8=Desvairada
TTITLE9=Tico Tico no Fubá
TTITLE10=Noites Cariocas
TTITLE11=Czardas
TTITLE12=Apanhei-te Cavaquinho
TTITLE13=Brasileirinho
EXTD=hack by Red
EXTT0=
EXTT1=
EXTT2=
EXTT3=
EXTT4=
EXTT5=
EXTT6=
EXTT7=
EXTT8=
EXTT9=
EXTT10=
EXTT11=
EXTT12=
EXTT13=
PLAYORDER=
